<?xml version="1.0" standalone="no"?><!-- Generator: Gravit.io --><svg xmlns="http://www.w3.org/2000/svg" xmlns:xlink="http://www.w3.org/1999/xlink" style="isolation:isolate" viewBox="0 0 763.17 158.81" width="763.17" height="158.81"><defs><clipPath id="_clipPath_hddBGbC31G1APlQRR236x83Wc3DJy9wD"><rect width="763.17" height="158.81"/></clipPath></defs><g clip-path="url(#_clipPath_hddBGbC31G1APlQRR236x83Wc3DJy9wD)"><path d=" M 26.93 28.93 C 9.389 53 -0.043 82.026 0 111.81 L 141 111.81 L 26.93 28.93 Z " fill="rgb(36,34,31)"/><path d=" M 104.68 0 C 56.274 15.75 23.505 60.866 23.5 111.77 L 141 111.77 L 104.68 0 Z " fill="rgb(55,64,70)"/><path d=" M 170.05 22.39 C 141.43 13.118 110.102 18.095 85.765 35.781 C 61.429 53.466 47.02 81.726 47 111.81 L 141 111.81 L 170.05 22.39 Z " fill="rgb(77,96,110)"/><path d=" M 198.03 70.38 C 180.084 45.664 148.261 35.318 119.211 44.755 C 90.161 54.192 70.494 81.265 70.5 111.81 L 141 111.81 L 198.03 70.38 Z " fill="rgb(95,125,137)"/><path d=" M 141 64.81 C 115.043 64.81 94 85.853 94 111.81 L 94 111.81 C 94 137.767 115.043 158.81 141 158.81 C 166.958 158.81 188 137.767 188 111.81 L 188 111.81 C 188 85.853 166.958 64.81 141 64.81 L 141 64.81 Z " fill="rgb(251,180,49)"/><path d=" M 276.45 113.19 Q 261.17 113.19 252.67 102.79 Q 244.17 92.39 244.16 72.17 Q 244.16 51.95 252.67 41.1 Q 261.18 30.25 276.45 30.24 Q 286.56 30.24 293.45 34.78 C 298.144 37.987 301.822 42.47 304.05 47.7 L 296.24 52.41 C 294.774 48.471 292.227 45.026 288.89 42.47 C 285.271 39.882 280.896 38.57 276.45 38.74 C 273.255 38.694 270.091 39.378 267.2 40.74 C 264.495 42.033 262.133 43.949 260.31 46.33 C 258.346 48.919 256.884 51.853 256 54.98 C 254.957 58.634 254.452 62.42 254.5 66.22 L 254.5 78.22 Q 254.5 90.67 260.25 97.71 Q 266 104.75 276.45 104.71 C 281.068 104.861 285.601 103.451 289.32 100.71 C 292.803 98.003 295.435 94.351 296.9 90.19 L 304.6 95.02 C 302.299 100.41 298.512 105.033 293.68 108.35 Q 286.59 113.19 276.45 113.19 Z " fill="rgb(55,64,70)"/><path d=" M 318.64 26.79 L 327.83 26.79 L 327.83 62.07 L 328.29 62.07 C 329.597 58.907 331.719 56.146 334.44 54.07 Q 338.44 51.07 345.07 51.07 Q 354.25 51.07 359.6 56.99 Q 364.95 62.91 364.94 73.7 L 364.94 111.7 L 355.75 111.7 L 355.75 75.2 Q 355.75 59.2 342.31 59.2 C 340.508 59.195 338.712 59.427 336.97 59.89 C 335.316 60.316 333.744 61.016 332.32 61.96 C 330.963 62.852 329.838 64.056 329.04 65.47 C 328.208 67.003 327.791 68.726 327.83 70.47 L 327.83 111.69 L 318.64 111.69 L 318.64 26.79 Z " fill="rgb(55,64,70)"/><path d=" M 426.98 111.81 Q 421.82 111.81 419.57 109.05 C 418.012 107.059 417.039 104.673 416.76 102.16 L 416.19 102.16 C 415.083 105.588 412.802 108.516 409.75 110.43 C 406.519 112.333 402.818 113.289 399.07 113.19 Q 389.64 113.19 384.42 108.37 Q 379.2 103.55 379.19 95.27 Q 379.19 86.89 385.34 82.4 Q 391.49 77.91 404.47 77.92 L 416.19 77.92 L 416.19 72.06 Q 416.19 65.75 412.74 62.41 Q 409.29 59.07 402.17 59.08 C 398.997 58.967 395.862 59.806 393.17 61.49 C 390.716 63.16 388.666 65.357 387.17 67.92 L 381.65 62.75 C 383.422 59.364 386.084 56.525 389.35 54.54 Q 394.63 51.15 402.68 51.15 Q 413.48 51.15 419.45 56.42 Q 425.42 61.69 425.45 71.1 L 425.45 103.66 L 432.22 103.66 L 432.22 111.81 L 426.98 111.81 Z  M 400.56 105.38 C 402.694 105.401 404.821 105.129 406.88 104.57 C 408.649 104.104 410.321 103.328 411.82 102.28 C 413.12 101.365 414.216 100.19 415.04 98.83 C 415.8 97.543 416.197 96.074 416.19 94.58 L 416.19 84.81 L 404.01 84.81 Q 396.08 84.81 392.46 87.11 C 390.125 88.5 388.736 91.055 388.84 93.77 L 388.84 96.19 C 388.707 98.834 389.89 101.372 392 102.97 C 394.11 104.57 396.96 105.38 400.56 105.38 Z " fill="rgb(55,64,70)"/><path d=" M 467.66 113.19 C 463.908 113.236 460.187 112.493 456.74 111.01 C 453.491 109.586 450.606 107.446 448.3 104.75 C 445.872 101.872 444.019 98.556 442.84 94.98 C 440.24 86.658 440.24 77.742 442.84 69.42 C 444.01 65.822 445.864 62.484 448.3 59.59 C 450.608 56.897 453.493 54.757 456.74 53.33 C 460.187 51.847 463.908 51.104 467.66 51.15 C 471.39 51.1 475.089 51.843 478.51 53.33 C 481.748 54.778 484.632 56.914 486.96 59.59 C 489.423 62.474 491.296 65.814 492.47 69.42 C 495.083 77.74 495.083 86.66 492.47 94.98 C 491.287 98.564 489.415 101.883 486.96 104.75 C 484.635 107.429 481.75 109.566 478.51 111.01 C 475.089 112.497 471.39 113.24 467.66 113.19 L 467.66 113.19 Z  M 467.66 105.03 C 472.17 105.206 476.56 103.551 479.83 100.44 Q 484.54 95.85 484.54 86.44 L 484.54 77.94 Q 484.54 68.52 479.83 63.94 C 472.867 57.819 462.443 57.819 455.48 63.94 Q 450.77 68.55 450.77 77.94 L 450.77 86.44 Q 450.77 95.86 455.48 100.44 C 458.758 103.541 463.151 105.186 467.66 105 L 467.66 105.03 Z " fill="rgb(55,64,70)"/><path d=" M 527.45 113.19 Q 519.18 113.19 513.61 110.03 C 509.865 107.905 506.597 105.032 504.01 101.59 L 510.56 96.3 C 512.652 99.032 515.27 101.317 518.26 103.02 C 521.296 104.641 524.699 105.454 528.14 105.38 Q 534 105.38 537.27 102.85 C 539.136 101.265 540.291 99 540.479 96.558 C 540.667 94.117 539.872 91.702 538.27 89.85 C 536.77 88.2 534.07 87.08 530.17 86.46 L 525.46 85.77 C 522.877 85.433 520.334 84.837 517.87 83.99 C 515.708 83.252 513.681 82.164 511.87 80.77 C 510.165 79.438 508.796 77.726 507.87 75.77 C 506.859 73.532 506.366 71.095 506.43 68.64 C 506.374 66.004 506.925 63.389 508.04 61 C 509.078 58.867 510.594 57.001 512.47 55.55 C 514.473 54.026 516.757 52.912 519.19 52.27 C 521.924 51.525 524.747 51.158 527.58 51.18 C 531.764 51.041 535.921 51.908 539.7 53.71 C 543.001 55.431 545.912 57.814 548.25 60.71 L 542.17 66.22 C 538.582 61.435 532.866 58.727 526.89 58.98 C 523.05 58.98 520.16 59.81 518.21 61.45 C 516.25 63.119 515.169 65.598 515.28 68.17 C 515.28 71.09 516.28 73.17 518.21 74.49 C 520.798 76.022 523.675 76.999 526.66 77.36 L 531.25 78.05 Q 541.13 79.55 545.25 83.74 C 548.071 86.689 549.564 90.663 549.38 94.74 Q 549.38 103.37 543.52 108.3 Q 537.66 113.23 527.45 113.19 Z " fill="rgb(55,64,70)"/><path d=" M 616.67 75.51 L 576.11 75.51 L 576.11 111.81 L 566.45 111.81 L 566.45 31.62 L 576.1 31.62 L 576.1 67 L 616.66 67 L 616.66 31.62 L 626.31 31.62 L 626.31 111.81 L 616.66 111.81 L 616.67 75.51 Z " fill="rgb(250,180,49)"/><path d=" M 683.31 102.27 L 682.85 102.27 C 682.211 103.661 681.462 104.998 680.61 106.27 C 679.711 107.613 678.604 108.805 677.33 109.8 C 675.913 110.88 674.319 111.705 672.62 112.24 C 670.539 112.884 668.368 113.191 666.19 113.15 Q 656.99 113.15 651.6 107.23 Q 646.21 101.31 646.2 90.52 L 646.2 52.52 L 655.39 52.52 L 655.39 89 Q 655.39 105 668.95 105 C 670.753 105.004 672.548 104.772 674.29 104.31 C 675.927 103.888 677.48 103.187 678.88 102.24 C 680.21 101.335 681.313 100.133 682.1 98.73 C 682.942 97.154 683.359 95.386 683.31 93.6 L 683.31 52.5 L 692.5 52.5 L 692.5 111.78 L 683.31 111.78 L 683.31 102.27 Z " fill="rgb(250,180,49)"/><path d=" M 712.03 26.79 L 721.22 26.79 L 721.22 62.07 L 721.68 62.07 C 722.959 58.66 725.32 55.763 728.4 53.82 C 731.63 51.967 735.308 51.043 739.03 51.15 C 742.487 51.1 745.908 51.846 749.03 53.33 C 752.019 54.788 754.633 56.912 756.67 59.54 C 758.896 62.45 760.536 65.765 761.5 69.3 C 763.727 77.736 763.727 86.604 761.5 95.04 C 760.536 98.575 758.896 101.89 756.67 104.8 C 754.635 107.431 752.021 109.556 749.03 111.01 C 745.908 112.494 742.487 113.24 739.03 113.19 Q 726.97 113.19 721.68 102.27 L 721.22 102.27 L 721.22 111.81 L 712.03 111.81 L 712.03 26.79 Z  M 736.5 105 Q 744.32 105 748.79 100.1 Q 753.26 95.2 753.27 87.22 L 753.27 77.09 Q 753.27 69.09 748.79 64.21 Q 744.31 59.33 736.5 59.31 C 734.495 59.302 732.5 59.592 730.58 60.17 C 728.835 60.688 727.186 61.489 725.7 62.54 C 724.356 63.498 723.24 64.741 722.43 66.18 C 721.631 67.566 721.213 69.14 721.22 70.74 L 721.22 92.91 C 721.186 94.698 721.602 96.465 722.43 98.05 C 723.226 99.545 724.343 100.846 725.7 101.86 C 727.168 102.942 728.822 103.745 730.58 104.23 C 732.509 104.758 734.501 105.017 736.5 105 Z " fill="rgb(250,180,49)"/></g></svg>