<?xml version="1.0" standalone="no"?><!-- Generator: Gravit.io --><svg xmlns="http://www.w3.org/2000/svg" xmlns:xlink="http://www.w3.org/1999/xlink" style="isolation:isolate" viewBox="0 0 763.15 158.81" width="763.15" height="158.81"><defs><clipPath id="_clipPath_h1aRwM3jWZm2WB0d1pMAKGdSlA4cnmg9"><rect width="763.15" height="158.81"/></clipPath></defs><g clip-path="url(#_clipPath_h1aRwM3jWZm2WB0d1pMAKGdSlA4cnmg9)"><path d=" M 26.93 28.93 C 9.389 53 -0.043 82.026 0 111.81 L 141 111.81 L 26.93 28.93 Z " fill="rgb(220,217,212)"/><path d=" M 104.68 0 C 56.274 15.75 23.505 60.866 23.5 111.77 L 141 111.77 L 104.68 0 Z " fill="rgb(153,166,173)"/><path d=" M 170.05 22.39 C 141.43 13.118 110.102 18.095 85.765 35.781 C 61.429 53.466 47.02 81.726 47 111.81 L 141 111.81 L 170.05 22.39 Z " fill="rgb(121,133,138)"/><path d=" M 198.03 70.38 C 180.084 45.664 148.261 35.318 119.211 44.755 C 90.161 54.192 70.494 81.265 70.5 111.81 L 141 111.81 L 198.03 70.38 Z " fill="rgb(88,105,108)"/><path d=" M 188 111.81 L 188 111.81 C 188 85.853 166.958 64.81 141 64.81 C 115.043 64.81 94 85.853 94 111.81 L 94 111.81 C 94 137.767 115.043 158.81 141 158.81 C 166.958 158.81 188 137.767 188 111.81 Z " fill="rgb(251,180,49)"/><path d=" M 276.45 113.19 Q 261.18 113.19 252.67 102.79 Q 244.16 92.39 244.17 72.17 Q 244.17 51.95 252.67 41.1 Q 261.17 30.25 276.45 30.24 Q 286.56 30.24 293.45 34.78 C 298.146 37.985 301.825 42.468 304.05 47.7 L 296.24 52.41 C 294.771 48.47 292.22 45.025 288.88 42.47 C 285.267 39.88 280.893 38.567 276.45 38.74 C 273.255 38.697 270.092 39.381 267.2 40.74 C 264.497 42.037 262.137 43.952 260.31 46.33 C 258.349 48.921 256.888 51.854 256 54.98 C 254.966 58.636 254.464 62.421 254.51 66.22 L 254.51 78.22 Q 254.51 90.67 260.25 97.71 Q 265.99 104.75 276.45 104.71 C 281.068 104.865 285.604 103.456 289.32 100.71 C 292.813 98.016 295.446 94.364 296.9 90.2 L 304.6 95.03 C 302.306 100.418 298.521 105.039 293.69 108.35 Q 286.59 113.19 276.45 113.19 Z " fill="rgb(220,217,212)"/><path d=" M 318.64 26.79 L 327.83 26.79 L 327.83 62.07 L 328.29 62.07 C 329.59 58.902 331.713 56.14 334.44 54.07 Q 338.44 51.07 345.06 51.07 Q 354.26 51.07 359.6 56.98 Q 364.94 62.89 364.94 73.7 L 364.94 111.7 L 355.75 111.7 L 355.75 75.2 Q 355.75 59.2 342.31 59.2 C 340.504 59.199 338.705 59.434 336.96 59.9 C 335.307 60.33 333.736 61.029 332.31 61.97 C 330.956 62.863 329.835 64.066 329.04 65.48 C 328.205 67.012 327.788 68.736 327.83 70.48 L 327.83 111.7 L 318.64 111.7 L 318.64 26.79 Z " fill="rgb(220,217,212)"/><path d=" M 426.98 111.81 Q 421.81 111.81 419.57 109.05 C 418.013 107.057 417.037 104.673 416.75 102.16 L 416.18 102.16 C 415.074 105.586 412.797 108.513 409.75 110.43 C 406.516 112.335 402.812 113.291 399.06 113.19 Q 389.64 113.19 384.41 108.36 Q 379.18 103.53 379.19 95.27 Q 379.19 86.89 385.33 82.4 Q 391.47 77.91 404.46 77.92 L 416.18 77.92 L 416.18 72.06 Q 416.18 65.75 412.73 62.41 Q 409.28 59.07 402.16 59.08 C 398.987 58.968 395.853 59.807 393.16 61.49 C 390.706 63.16 388.656 65.357 387.16 67.92 L 381.65 62.75 C 383.417 59.36 386.08 56.52 389.35 54.54 Q 394.63 51.15 402.67 51.15 Q 413.47 51.15 419.45 56.42 Q 425.43 61.69 425.45 71.1 L 425.45 103.65 L 432.23 103.65 L 432.23 111.81 L 426.98 111.81 Z  M 400.55 105.38 C 402.684 105.402 404.811 105.129 406.87 104.57 C 408.642 104.108 410.316 103.329 411.81 102.27 C 413.112 101.361 414.209 100.189 415.03 98.83 C 415.794 97.545 416.192 96.075 416.18 94.58 L 416.18 84.81 L 404 84.81 Q 396.08 84.81 392.45 87.11 C 390.117 88.501 388.732 91.056 388.84 93.77 L 388.84 96.19 C 388.71 98.83 389.893 101.364 392 102.96 Q 395.15 105.38 400.55 105.38 Z " fill="rgb(220,217,212)"/><path d=" M 467.65 113.19 C 463.901 113.235 460.184 112.493 456.74 111.01 C 453.488 109.586 450.599 107.446 448.29 104.75 C 445.866 101.87 444.013 98.554 442.83 94.98 C 440.23 86.658 440.23 77.742 442.83 69.42 C 444.004 65.824 445.857 62.487 448.29 59.59 C 450.599 56.894 453.488 54.754 456.74 53.33 C 460.184 51.847 463.901 51.105 467.65 51.15 C 471.383 51.101 475.085 51.844 478.51 53.33 C 481.747 54.775 484.628 56.912 486.95 59.59 C 489.415 62.474 491.291 65.814 492.47 69.42 C 495.07 77.742 495.07 86.658 492.47 94.98 C 491.284 98.565 489.409 101.884 486.95 104.75 C 484.628 107.428 481.747 109.565 478.51 111.01 C 475.085 112.496 471.383 113.239 467.65 113.19 L 467.65 113.19 Z  M 467.65 105.03 C 472.163 105.208 476.557 103.552 479.83 100.44 Q 484.54 95.83 484.54 86.44 L 484.54 77.94 Q 484.54 68.52 479.83 63.94 C 472.868 57.809 462.433 57.809 455.47 63.94 Q 450.76 68.55 450.76 77.94 L 450.76 86.44 Q 450.76 95.86 455.47 100.44 C 458.748 103.541 463.141 105.186 467.65 105 L 467.65 105.03 Z " fill="rgb(220,217,212)"/><path d=" M 527.45 113.19 Q 519.17 113.19 513.6 110.03 C 509.86 107.901 506.597 105.029 504.01 101.59 L 510.56 96.3 C 512.648 99.032 515.263 101.317 518.25 103.02 C 521.287 104.64 524.689 105.453 528.13 105.38 C 532.04 105.38 535.13 104.53 537.27 102.85 C 539.134 101.263 540.287 98.998 540.475 96.558 C 540.663 94.118 539.869 91.703 538.27 89.85 Q 536.04 87.38 530.17 86.46 L 525.46 85.77 C 522.881 85.429 520.342 84.832 517.88 83.99 C 515.719 83.248 513.693 82.16 511.88 80.77 C 510.168 79.445 508.797 77.731 507.88 75.77 C 506.869 73.536 506.376 71.102 506.44 68.65 C 506.383 66.013 506.934 63.399 508.05 61.01 C 509.083 58.874 510.596 57.005 512.47 55.55 C 514.478 54.037 516.76 52.927 519.19 52.28 C 521.924 51.535 524.747 51.168 527.58 51.19 C 531.765 51.049 535.921 51.917 539.7 53.72 C 543.004 55.44 545.918 57.823 548.26 60.72 L 542.17 66.24 C 540.63 64.188 538.674 62.485 536.43 61.24 C 533.508 59.652 530.213 58.878 526.89 59 Q 521.15 59 518.22 61.47 C 516.256 63.136 515.174 65.617 515.29 68.19 C 515.29 71.1 516.29 73.19 518.22 74.51 C 520.806 76.038 523.679 77.015 526.66 77.38 L 531.26 78.07 Q 541.13 79.57 545.26 83.76 C 548.085 86.707 549.581 90.682 549.4 94.76 Q 549.4 103.39 543.54 108.32 Q 537.68 113.25 527.45 113.19 Z " fill="rgb(220,217,212)"/><path d=" M 616.67 75.51 L 576.11 75.51 L 576.11 111.81 L 566.45 111.81 L 566.45 31.62 L 576.1 31.62 L 576.1 67 L 616.66 67 L 616.66 31.62 L 626.31 31.62 L 626.31 111.81 L 616.66 111.81 L 616.67 75.51 Z " fill="rgb(250,180,49)"/><path d=" M 683.3 102.27 L 682.84 102.27 C 682.205 103.663 681.455 105 680.6 106.27 C 679.707 107.612 678.603 108.801 677.33 109.79 C 675.915 110.875 674.321 111.704 672.62 112.24 C 670.536 112.884 668.362 113.191 666.18 113.15 Q 656.98 113.15 651.59 107.23 Q 646.2 101.31 646.19 90.52 L 646.19 52.52 L 655.38 52.52 L 655.38 89 Q 655.38 105 668.94 105 C 670.743 105.005 672.538 104.773 674.28 104.31 C 675.921 103.889 677.477 103.189 678.88 102.24 C 680.208 101.332 681.309 100.131 682.1 98.73 C 682.938 97.153 683.352 95.385 683.3 93.6 L 683.3 52.5 L 692.45 52.5 L 692.45 111.78 L 683.26 111.78 L 683.3 102.27 Z " fill="rgb(250,180,49)"/><path d=" M 712.02 26.79 L 721.22 26.79 L 721.22 62.07 L 721.68 62.07 C 722.956 58.658 725.317 55.76 728.4 53.82 C 731.626 51.967 735.302 51.043 739.02 51.15 C 742.476 51.103 745.897 51.849 749.02 53.33 C 752.007 54.787 754.62 56.907 756.66 59.53 C 758.88 62.448 760.52 65.764 761.49 69.3 C 763.704 77.737 763.704 86.603 761.49 95.04 C 760.522 98.574 758.883 101.887 756.66 104.8 C 754.62 107.426 752.007 109.55 749.02 111.01 C 745.897 112.491 742.476 113.237 739.02 113.19 Q 726.96 113.19 721.68 102.27 L 721.22 102.27 L 721.22 111.81 L 712.02 111.81 L 712.02 26.79 Z  M 736.5 105 Q 744.3 105 748.79 100.1 Q 753.28 95.2 753.27 87.22 L 753.27 77.09 Q 753.27 69.09 748.79 64.21 Q 744.31 59.33 736.5 59.3 C 734.494 59.291 732.499 59.585 730.58 60.17 C 728.833 60.684 727.184 61.485 725.7 62.54 C 724.355 63.501 723.236 64.743 722.42 66.18 C 721.628 67.569 721.214 69.141 721.22 70.74 L 721.22 92.91 C 721.188 94.696 721.6 96.463 722.42 98.05 C 723.223 99.544 724.343 100.844 725.7 101.86 C 727.164 102.947 728.82 103.747 730.58 104.22 C 732.507 104.756 734.5 105.019 736.5 105 L 736.5 105 Z " fill="rgb(250,180,49)"/></g></svg>