<?xml version="1.0" encoding="UTF-8" standalone="no"?>
<svg
   xmlns:dc="http://purl.org/dc/elements/1.1/"
   xmlns:cc="http://creativecommons.org/ns#"
   xmlns:rdf="http://www.w3.org/1999/02/22-rdf-syntax-ns#"
   xmlns:svg="http://www.w3.org/2000/svg"
   xmlns="http://www.w3.org/2000/svg"
   xmlns:sodipodi="http://sodipodi.sourceforge.net/DTD/sodipodi-0.dtd"
   xmlns:inkscape="http://www.inkscape.org/namespaces/inkscape"
   id="Calque_1"
   data-name="Calque 1"
   viewBox="0 0 763.17004 113.19702"
   version="1.1"
   sodipodi:docname="logo.svg"
   width="763.17004"
   height="113.19702"
   inkscape:version="0.92.3 (unknown)">
  <metadata
     id="metadata964">
    <rdf:RDF>
      <cc:Work
         rdf:about="">
        <dc:format>image/svg+xml</dc:format>
        <dc:type
           rdf:resource="http://purl.org/dc/dcmitype/StillImage" />
      </cc:Work>
    </rdf:RDF>
  </metadata>
  <sodipodi:namedview
     pagecolor="#ffffff"
     bordercolor="#666666"
     borderopacity="1"
     objecttolerance="10"
     gridtolerance="10"
     guidetolerance="10"
     inkscape:pageopacity="0"
     inkscape:pageshadow="2"
     inkscape:window-width="3840"
     inkscape:window-height="2020"
     id="namedview962"
     showgrid="false"
     inkscape:zoom="3.281875"
     inkscape:cx="207.28519"
     inkscape:cy="168.38802"
     inkscape:window-x="0"
     inkscape:window-y="68"
     inkscape:window-maximized="1"
     inkscape:current-layer="Calque_1" />
  <defs
     id="defs931">
    <style
       id="style929">.cls-1{fill:#252220;}.cls-2{fill:#344046;}.cls-3{fill:#45606d;}.cls-4{fill:#547e89;}.cls-5{fill:#ffb13b;}</style>
  </defs>
  <title
     id="title933">open-source-hub-vector</title>
  <path
     class="cls-1"
     d="M 26.930145,28.93 A 140.38,140.38 0 0 0 1.4513281e-4,111.81 H 141.00015 Z"
     id="path935"
     inkscape:connector-curvature="0"
     style="fill:#252220" />
  <path
     class="cls-2"
     d="M 104.68015,0 A 117.55,117.55 0 0 0 23.500145,111.77 H 141.00015 Z"
     id="path937"
     inkscape:connector-curvature="0"
     style="fill:#344046" />
  <path
     class="cls-3"
     d="M 170.05015,22.39 A 94.06,94.06 0 0 0 47.000145,111.81 h 94.000005 z"
     id="path939"
     inkscape:connector-curvature="0"
     style="fill:#45606d" />
  <path
     class="cls-4"
     d="M 198.03015,70.38 A 70.49,70.49 0 0 0 70.500145,111.81 h 70.500005 z"
     id="path941"
     inkscape:connector-curvature="0"
     style="fill:#547e89" />
  <path
     class="cls-5"
     d="m 141.00015,64.81 a 47,47 0 0 0 -47.000005,47 h 94.000005 a 47,47 0 0 0 -47,-47 z"
     id="path943"
     inkscape:connector-curvature="0"
     style="fill:#ffb13b" />
  <path
     class="cls-2"
     d="m 276.45015,113.19 q -15.28,0 -23.78,-10.4 -8.5,-10.4 -8.51,-30.62 0,-20.22 8.51,-31.07 8.51,-10.85 23.78,-10.86 10.11,0 17,4.54 a 29.78,29.78 0 0 1 10.6,12.92 l -7.81,4.71 a 22.33,22.33 0 0 0 -7.35,-9.94 20.07,20.07 0 0 0 -12.44,-3.73 21,21 0 0 0 -9.25,2 19,19 0 0 0 -6.89,5.59 26,26 0 0 0 -4.31,8.65 39.15,39.15 0 0 0 -1.5,11.24 v 12 q 0,12.45 5.75,19.49 5.75,7.04 16.2,7 a 20.56,20.56 0 0 0 12.87,-4 23,23 0 0 0 7.58,-10.52 l 7.7,4.83 a 30.87,30.87 0 0 1 -10.92,13.33 q -7.09,4.84 -17.23,4.84 z"
     id="path945"
     inkscape:connector-curvature="0"
     style="fill:#344046" />
  <path
     class="cls-2"
     d="m 318.64015,26.79 h 9.19 v 35.28 h 0.46 a 19.36,19.36 0 0 1 6.15,-8 q 4,-3 10.63,-3 9.18,0 14.53,5.92 5.35,5.92 5.34,16.71 v 38 h -9.19 V 75.2 q 0,-16 -13.44,-16 a 20.58,20.58 0 0 0 -5.34,0.69 15.34,15.34 0 0 0 -4.65,2.07 10.2,10.2 0 0 0 -3.28,3.51 10,10 0 0 0 -1.21,5 v 41.22 h -9.19 z"
     id="path947"
     inkscape:connector-curvature="0"
     style="fill:#344046" />
  <path
     class="cls-2"
     d="m 426.98015,111.81 q -5.16,0 -7.41,-2.76 a 13.62,13.62 0 0 1 -2.81,-6.89 h -0.57 a 15.32,15.32 0 0 1 -6.44,8.27 20,20 0 0 1 -10.68,2.76 q -9.43,0 -14.65,-4.82 -5.22,-4.82 -5.23,-13.1 0,-8.38 6.15,-12.87 6.15,-4.49 19.13,-4.48 h 11.72 v -5.86 q 0,-6.31 -3.45,-9.65 -3.45,-3.34 -10.57,-3.33 a 15.9,15.9 0 0 0 -9,2.41 19.93,19.93 0 0 0 -6,6.43 l -5.52,-5.17 a 21,21 0 0 1 7.7,-8.21 q 5.28,-3.39 13.33,-3.39 10.8,0 16.77,5.27 5.97,5.27 6,14.68 v 32.56 h 6.77 v 8.15 z m -26.42,-6.43 a 23.25,23.25 0 0 0 6.32,-0.81 15.53,15.53 0 0 0 4.94,-2.29 11.52,11.52 0 0 0 3.22,-3.45 8.29,8.29 0 0 0 1.15,-4.25 v -9.77 h -12.18 q -7.93,0 -11.55,2.3 a 7.42,7.42 0 0 0 -3.62,6.66 v 2.42 a 8,8 0 0 0 3.16,6.78 c 2.11,1.6 4.96,2.41 8.56,2.41 z"
     id="path949"
     inkscape:connector-curvature="0"
     style="fill:#344046" />
  <path
     class="cls-2"
     d="m 467.66015,113.19 a 26.79,26.79 0 0 1 -10.92,-2.18 23.53,23.53 0 0 1 -8.44,-6.26 29.45,29.45 0 0 1 -5.46,-9.77 42.85,42.85 0 0 1 0,-25.56 29.35,29.35 0 0 1 5.46,-9.83 23.65,23.65 0 0 1 8.44,-6.26 26.79,26.79 0 0 1 10.92,-2.18 26.35,26.35 0 0 1 10.85,2.18 24.41,24.41 0 0 1 8.45,6.26 28.93,28.93 0 0 1 5.51,9.83 42.65,42.65 0 0 1 0,25.56 29,29 0 0 1 -5.51,9.77 24.28,24.28 0 0 1 -8.45,6.26 26.35,26.35 0 0 1 -10.85,2.18 z m 0,-8.16 a 16.71,16.71 0 0 0 12.17,-4.59 q 4.71,-4.59 4.71,-14 v -8.5 q 0,-9.42 -4.71,-14 a 18.44,18.44 0 0 0 -24.35,0 q -4.71,4.61 -4.71,14 v 8.5 q 0,9.42 4.71,14 a 16.72,16.72 0 0 0 12.18,4.56 z"
     id="path951"
     inkscape:connector-curvature="0"
     style="fill:#344046" />
  <path
     class="cls-2"
     d="m 527.45015,113.19 q -8.27,0 -13.84,-3.16 a 31.39,31.39 0 0 1 -9.6,-8.44 l 6.55,-5.29 a 25.74,25.74 0 0 0 7.7,6.72 20.06,20.06 0 0 0 9.88,2.36 q 5.86,0 9.13,-2.53 a 9.18,9.18 0 0 0 1,-13 c -1.5,-1.65 -4.2,-2.77 -8.1,-3.39 l -4.71,-0.69 a 38.74,38.74 0 0 1 -7.59,-1.78 20.92,20.92 0 0 1 -6,-3.22 13.88,13.88 0 0 1 -4,-5 16.28,16.28 0 0 1 -1.44,-7.13 17.19,17.19 0 0 1 1.61,-7.64 15.41,15.41 0 0 1 4.43,-5.45 19.17,19.17 0 0 1 6.72,-3.28 31,31 0 0 1 8.39,-1.09 26.14,26.14 0 0 1 12.12,2.53 27.08,27.08 0 0 1 8.55,7 l -6.08,5.51 a 18.14,18.14 0 0 0 -15.28,-7.24 c -3.84,0 -6.73,0.83 -8.68,2.47 a 8.35,8.35 0 0 0 -2.93,6.72 c 0,2.92 1,5 2.93,6.32 a 21.7,21.7 0 0 0 8.45,2.87 l 4.59,0.69 q 9.88,1.5 14,5.69 a 14.94,14.94 0 0 1 4.13,11 q 0,8.63 -5.86,13.56 -5.86,4.93 -16.07,4.89 z"
     id="path953"
     inkscape:connector-curvature="0"
     style="fill:#344046" />
  <path
     class="cls-5"
     d="m 616.67015,75.51 h -40.56 v 36.3 h -9.66 V 31.62 h 9.65 V 67 h 40.56 V 31.62 h 9.65 v 80.19 h -9.65 z"
     id="path955"
     inkscape:connector-curvature="0"
     style="fill:#ffb13b" />
  <path
     class="cls-5"
     d="m 683.31015,102.27 h -0.46 a 28.86,28.86 0 0 1 -2.24,4 15.21,15.21 0 0 1 -3.28,3.53 15.4,15.4 0 0 1 -4.71,2.44 20.45,20.45 0 0 1 -6.43,0.91 q -9.2,0 -14.59,-5.92 -5.39,-5.92 -5.4,-16.71 v -38 h 9.19 V 89 q 0,16 13.56,16 a 20.64,20.64 0 0 0 5.34,-0.69 14.78,14.78 0 0 0 4.59,-2.07 10.41,10.41 0 0 0 3.22,-3.51 10.3,10.3 0 0 0 1.21,-5.13 V 52.5 h 9.19 v 59.28 h -9.19 z"
     id="path957"
     inkscape:connector-curvature="0"
     style="fill:#ffb13b" />
  <path
     class="cls-5"
     d="m 712.03015,26.79 h 9.19 v 35.28 h 0.46 a 16.68,16.68 0 0 1 6.72,-8.25 20.19,20.19 0 0 1 10.63,-2.67 22.53,22.53 0 0 1 10,2.18 21.71,21.71 0 0 1 7.64,6.21 28.33,28.33 0 0 1 4.83,9.76 50.43,50.43 0 0 1 0,25.74 28.33,28.33 0 0 1 -4.83,9.76 21.6,21.6 0 0 1 -7.64,6.21 22.53,22.53 0 0 1 -10,2.18 q -12.06,0 -17.35,-10.92 h -0.46 v 9.54 h -9.19 z m 24.47,78.21 q 7.82,0 12.29,-4.9 4.47,-4.9 4.48,-12.88 V 77.09 q 0,-8 -4.48,-12.88 -4.48,-4.88 -12.29,-4.9 a 20.28,20.28 0 0 0 -5.92,0.86 16.67,16.67 0 0 0 -4.88,2.37 11.24,11.24 0 0 0 -3.27,3.64 9.05,9.05 0 0 0 -1.21,4.56 v 22.17 a 10.66,10.66 0 0 0 1.21,5.14 11.5,11.5 0 0 0 3.27,3.81 14.89,14.89 0 0 0 4.88,2.37 21.7,21.7 0 0 0 5.92,0.77 z"
     id="path959"
     inkscape:connector-curvature="0"
     style="fill:#ffb13b" />
</svg>
