<?xml version="1.0" standalone="no"?>
<!DOCTYPE svg PUBLIC "-//W3C//DTD SVG 20010904//EN"
 "http://www.w3.org/TR/2001/REC-SVG-20010904/DTD/svg10.dtd">
<svg version="1.0" xmlns="http://www.w3.org/2000/svg"
 width="601.000000pt" height="601.000000pt" viewBox="0 0 601.000000 601.000000"
 preserveAspectRatio="xMidYMid meet">
<metadata>
Created by potrace 1.11, written by Peter Selinger 2001-2013
</metadata>
<g transform="translate(0.000000,601.000000) scale(0.100000,-0.100000)"
fill="#000000" stroke="none">
<path d="M3120 5361 c-140 -44 -592 -253 -640 -296 -9 -8 -20 -15 -23 -15 -10
0 -171 -104 -252 -163 -82 -60 -190 -146 -254 -202 -57 -49 -294 -285 -341
-340 -47 -53 -160 -195 -174 -217 -6 -10 -14 -18 -19 -18 -4 0 -131 90 -282
200 -151 110 -280 197 -287 194 -16 -6 -144 -201 -234 -354 -63 -108 -186
-351 -228 -451 -57 -136 -135 -351 -162 -449 -43 -158 -65 -241 -70 -265 -2
-16 -9 -46 -14 -65 -5 -19 -11 -48 -14 -65 -2 -16 -11 -70 -20 -120 -21 -122
-26 -161 -32 -225 -3 -30 -7 -75 -10 -100 -2 -25 -7 -118 -10 -206 l-6 -162
1398 -1 c769 -1 1399 -3 1400 -4 1 -1 4 -40 7 -87 22 -302 140 -592 331 -814
229 -266 554 -443 887 -483 115 -13 411 -5 440 12 3 2 19 6 35 9 116 21 293
89 409 158 112 66 182 121 289 223 46 44 157 182 194 241 80 126 152 308 188
470 20 89 29 385 14 469 -18 105 -21 121 -31 160 -37 138 -113 310 -183 414
-30 44 -35 57 -24 67 12 12 396 292 463 338 17 12 44 31 59 44 l29 22 -44 56
c-224 291 -583 553 -930 681 l-77 28 38 115 c147 445 177 545 165 553 -31 17
-319 86 -432 102 -145 21 -255 28 -408 29 -124 0 -302 -9 -355 -18 -14 -3 -44
-7 -67 -10 -106 -15 -136 -21 -278 -56 -82 -21 -157 -41 -166 -44 -12 -5 -19
7 -33 54 -74 248 -195 595 -207 597 -8 1 -25 -2 -39 -6z"/>
</g>
</svg>
